<mxfile host="app.diagrams.net" modified="2024-07-01T18:40:37.603Z" agent="Mozilla/5.0 (X11; Ubuntu; Linux x86_64; rv:127.0) Gecko/20100101 Firefox/127.0" etag="QUT9K25cMa4iUan_A0Ly" version="24.6.1" type="device">
  <diagram name="Pagina-1" id="nWDw0S2ICuR4OczdVEyi">
    <mxGraphModel dx="1195" dy="663" grid="1" gridSize="10" guides="1" tooltips="1" connect="1" arrows="1" fold="1" page="1" pageScale="1" pageWidth="827" pageHeight="1169" math="0" shadow="0">
      <root>
        <mxCell id="0" />
        <mxCell id="1" parent="0" />
        <mxCell id="v8D_jbdJpXpKLo5C9jEz-1" style="edgeStyle=orthogonalEdgeStyle;rounded=0;orthogonalLoop=1;jettySize=auto;html=1;exitX=0.25;exitY=1;exitDx=0;exitDy=0;endArrow=oval;endFill=1;" parent="1" source="LSVWAHJbNo_uzlFZOcrg-1" edge="1">
          <mxGeometry relative="1" as="geometry">
            <mxPoint x="415" y="258" as="targetPoint" />
          </mxGeometry>
        </mxCell>
        <mxCell id="v8D_jbdJpXpKLo5C9jEz-3" style="edgeStyle=orthogonalEdgeStyle;rounded=0;orthogonalLoop=1;jettySize=auto;html=1;exitX=0.75;exitY=0;exitDx=0;exitDy=0;endArrow=oval;endFill=0;entryX=-0.014;entryY=0.578;entryDx=0;entryDy=0;entryPerimeter=0;" parent="1" source="LSVWAHJbNo_uzlFZOcrg-1" edge="1">
          <mxGeometry relative="1" as="geometry">
            <mxPoint x="464.1600000000001" y="187.34000000000003" as="targetPoint" />
          </mxGeometry>
        </mxCell>
        <mxCell id="v8D_jbdJpXpKLo5C9jEz-8" style="edgeStyle=orthogonalEdgeStyle;rounded=0;orthogonalLoop=1;jettySize=auto;html=1;exitX=0.25;exitY=0;exitDx=0;exitDy=0;endArrow=oval;endFill=0;" parent="1" source="LSVWAHJbNo_uzlFZOcrg-1" target="v8D_jbdJpXpKLo5C9jEz-9" edge="1">
          <mxGeometry relative="1" as="geometry">
            <mxPoint x="415" y="190" as="targetPoint" />
            <Array as="points">
              <mxPoint x="415" y="190" />
              <mxPoint x="405" y="190" />
            </Array>
          </mxGeometry>
        </mxCell>
        <mxCell id="v8D_jbdJpXpKLo5C9jEz-10" style="edgeStyle=orthogonalEdgeStyle;rounded=0;orthogonalLoop=1;jettySize=auto;html=1;exitX=1;exitY=0.75;exitDx=0;exitDy=0;endArrow=oval;endFill=0;" parent="1" source="LSVWAHJbNo_uzlFZOcrg-1" edge="1">
          <mxGeometry relative="1" as="geometry">
            <mxPoint x="485" y="240" as="targetPoint" />
            <Array as="points">
              <mxPoint x="485" y="240" />
              <mxPoint x="485" y="240" />
            </Array>
          </mxGeometry>
        </mxCell>
        <mxCell id="T9DS_cHOEE58H93hngrO-1" style="edgeStyle=orthogonalEdgeStyle;rounded=0;orthogonalLoop=1;jettySize=auto;html=1;endArrow=oval;endFill=0;" parent="1" source="LSVWAHJbNo_uzlFZOcrg-1" edge="1">
          <mxGeometry relative="1" as="geometry">
            <mxPoint x="435" y="180" as="targetPoint" />
          </mxGeometry>
        </mxCell>
        <mxCell id="T9DS_cHOEE58H93hngrO-50" style="edgeStyle=orthogonalEdgeStyle;rounded=0;orthogonalLoop=1;jettySize=auto;html=1;exitX=0.75;exitY=0;exitDx=0;exitDy=0;endArrow=circle;endFill=0;endSize=2;" parent="1" source="LSVWAHJbNo_uzlFZOcrg-1" edge="1">
          <mxGeometry relative="1" as="geometry">
            <mxPoint x="460" y="170" as="targetPoint" />
            <mxPoint x="460" y="180" as="sourcePoint" />
          </mxGeometry>
        </mxCell>
        <mxCell id="Cgu9ZG7k7ZKk-AHkz6hC-9" style="edgeStyle=orthogonalEdgeStyle;rounded=0;orthogonalLoop=1;jettySize=auto;html=1;entryX=0.5;entryY=0;entryDx=0;entryDy=0;endArrow=none;endFill=0;" parent="1" source="LSVWAHJbNo_uzlFZOcrg-1" target="Cgu9ZG7k7ZKk-AHkz6hC-7" edge="1">
          <mxGeometry relative="1" as="geometry" />
        </mxCell>
        <mxCell id="LSVWAHJbNo_uzlFZOcrg-1" value="Utente" style="whiteSpace=wrap;html=1;align=center;" parent="1" vertex="1">
          <mxGeometry x="395" y="200" width="80" height="40" as="geometry" />
        </mxCell>
        <mxCell id="LSVWAHJbNo_uzlFZOcrg-3" value="" style="edgeStyle=orthogonalEdgeStyle;rounded=0;orthogonalLoop=1;jettySize=auto;html=1;endArrow=none;endFill=0;" parent="1" source="LSVWAHJbNo_uzlFZOcrg-2" target="LSVWAHJbNo_uzlFZOcrg-1" edge="1">
          <mxGeometry relative="1" as="geometry" />
        </mxCell>
        <mxCell id="LSVWAHJbNo_uzlFZOcrg-5" value="" style="edgeStyle=orthogonalEdgeStyle;rounded=0;orthogonalLoop=1;jettySize=auto;html=1;endArrow=none;endFill=0;" parent="1" source="LSVWAHJbNo_uzlFZOcrg-2" target="LSVWAHJbNo_uzlFZOcrg-4" edge="1">
          <mxGeometry relative="1" as="geometry" />
        </mxCell>
        <mxCell id="LSVWAHJbNo_uzlFZOcrg-2" value="&lt;font style=&quot;font-size: 9px;&quot;&gt;Compone&lt;/font&gt;" style="shape=rhombus;perimeter=rhombusPerimeter;whiteSpace=wrap;html=1;align=center;" parent="1" vertex="1">
          <mxGeometry x="525" y="200" width="80" height="40" as="geometry" />
        </mxCell>
        <mxCell id="v8D_jbdJpXpKLo5C9jEz-53" style="edgeStyle=orthogonalEdgeStyle;rounded=0;orthogonalLoop=1;jettySize=auto;html=1;endArrow=oval;endFill=1;exitX=-0.012;exitY=0.89;exitDx=0;exitDy=0;exitPerimeter=0;" parent="1" source="LSVWAHJbNo_uzlFZOcrg-4" edge="1">
          <mxGeometry relative="1" as="geometry">
            <mxPoint x="650" y="205" as="targetPoint" />
            <mxPoint x="650" y="235" as="sourcePoint" />
          </mxGeometry>
        </mxCell>
        <mxCell id="LSVWAHJbNo_uzlFZOcrg-4" value="Carrello" style="whiteSpace=wrap;html=1;align=center;" parent="1" vertex="1">
          <mxGeometry x="670" y="200" width="80" height="40" as="geometry" />
        </mxCell>
        <mxCell id="LSVWAHJbNo_uzlFZOcrg-15" value="" style="edgeStyle=orthogonalEdgeStyle;rounded=0;orthogonalLoop=1;jettySize=auto;html=1;endArrow=none;endFill=0;" parent="1" source="LSVWAHJbNo_uzlFZOcrg-12" target="LSVWAHJbNo_uzlFZOcrg-13" edge="1">
          <mxGeometry relative="1" as="geometry" />
        </mxCell>
        <mxCell id="v8D_jbdJpXpKLo5C9jEz-12" style="edgeStyle=orthogonalEdgeStyle;rounded=0;orthogonalLoop=1;jettySize=auto;html=1;exitX=0.75;exitY=1;exitDx=0;exitDy=0;endArrow=oval;endFill=0;entryX=0.495;entryY=0.035;entryDx=0;entryDy=0;entryPerimeter=0;" parent="1" source="LSVWAHJbNo_uzlFZOcrg-12" target="v8D_jbdJpXpKLo5C9jEz-13" edge="1">
          <mxGeometry relative="1" as="geometry">
            <mxPoint x="175.0769230769231" y="219.99999999999994" as="targetPoint" />
          </mxGeometry>
        </mxCell>
        <mxCell id="v8D_jbdJpXpKLo5C9jEz-16" style="edgeStyle=orthogonalEdgeStyle;rounded=0;orthogonalLoop=1;jettySize=auto;html=1;exitX=0.25;exitY=1;exitDx=0;exitDy=0;endArrow=oval;endFill=0;" parent="1" source="LSVWAHJbNo_uzlFZOcrg-12" edge="1">
          <mxGeometry relative="1" as="geometry">
            <mxPoint x="135.0645161290322" y="90" as="targetPoint" />
          </mxGeometry>
        </mxCell>
        <mxCell id="v8D_jbdJpXpKLo5C9jEz-32" style="edgeStyle=orthogonalEdgeStyle;rounded=0;orthogonalLoop=1;jettySize=auto;html=1;exitX=0;exitY=0.25;exitDx=0;exitDy=0;endArrow=oval;endFill=0;" parent="1" source="LSVWAHJbNo_uzlFZOcrg-12" edge="1">
          <mxGeometry relative="1" as="geometry">
            <mxPoint x="105" y="50.07692307692304" as="targetPoint" />
          </mxGeometry>
        </mxCell>
        <mxCell id="v8D_jbdJpXpKLo5C9jEz-34" style="edgeStyle=orthogonalEdgeStyle;rounded=0;orthogonalLoop=1;jettySize=auto;html=1;exitX=0;exitY=0.75;exitDx=0;exitDy=0;endArrow=oval;endFill=0;" parent="1" source="LSVWAHJbNo_uzlFZOcrg-12" edge="1">
          <mxGeometry relative="1" as="geometry">
            <mxPoint x="105" y="70.07692307692304" as="targetPoint" />
          </mxGeometry>
        </mxCell>
        <mxCell id="T9DS_cHOEE58H93hngrO-48" style="edgeStyle=orthogonalEdgeStyle;rounded=0;orthogonalLoop=1;jettySize=auto;html=1;exitX=0.75;exitY=0;exitDx=0;exitDy=0;endArrow=circle;endFill=0;endSize=2;" parent="1" source="LSVWAHJbNo_uzlFZOcrg-12" edge="1">
          <mxGeometry relative="1" as="geometry">
            <mxPoint x="175" y="20" as="targetPoint" />
          </mxGeometry>
        </mxCell>
        <mxCell id="x-2FUSIgI486Elk6Vbch-6" style="edgeStyle=orthogonalEdgeStyle;rounded=0;orthogonalLoop=1;jettySize=auto;html=1;endArrow=none;endFill=0;" parent="1" source="LSVWAHJbNo_uzlFZOcrg-12" edge="1">
          <mxGeometry relative="1" as="geometry">
            <mxPoint x="55" y="358" as="targetPoint" />
          </mxGeometry>
        </mxCell>
        <mxCell id="LSVWAHJbNo_uzlFZOcrg-12" value="Pet" style="whiteSpace=wrap;html=1;align=center;" parent="1" vertex="1">
          <mxGeometry x="115" y="40" width="80" height="40" as="geometry" />
        </mxCell>
        <mxCell id="LSVWAHJbNo_uzlFZOcrg-13" value="Possiede" style="shape=rhombus;perimeter=rhombusPerimeter;whiteSpace=wrap;html=1;align=center;" parent="1" vertex="1">
          <mxGeometry x="385" y="40" width="120" height="40" as="geometry" />
        </mxCell>
        <mxCell id="BllFOEnSqAIYLHdjcKKW-4" style="edgeStyle=orthogonalEdgeStyle;rounded=0;orthogonalLoop=1;jettySize=auto;html=1;exitX=0;exitY=0.25;exitDx=0;exitDy=0;endArrow=oval;endFill=0;" parent="1" source="Cgu9ZG7k7ZKk-AHkz6hC-1" edge="1">
          <mxGeometry relative="1" as="geometry">
            <mxPoint x="370" y="328" as="targetPoint" />
            <mxPoint x="400" y="348" as="sourcePoint" />
          </mxGeometry>
        </mxCell>
        <mxCell id="BllFOEnSqAIYLHdjcKKW-6" style="edgeStyle=orthogonalEdgeStyle;rounded=0;orthogonalLoop=1;jettySize=auto;html=1;exitX=0;exitY=0.5;exitDx=0;exitDy=0;endArrow=oval;endFill=0;entryX=1.001;entryY=0.5;entryDx=0;entryDy=0;entryPerimeter=0;" parent="1" source="Cgu9ZG7k7ZKk-AHkz6hC-1" target="BllFOEnSqAIYLHdjcKKW-7" edge="1">
          <mxGeometry relative="1" as="geometry">
            <mxPoint x="375" y="348" as="targetPoint" />
            <mxPoint x="375" y="428" as="sourcePoint" />
            <Array as="points" />
          </mxGeometry>
        </mxCell>
        <mxCell id="LSVWAHJbNo_uzlFZOcrg-21" value="" style="edgeStyle=orthogonalEdgeStyle;rounded=0;orthogonalLoop=1;jettySize=auto;html=1;endArrow=none;endFill=0;entryX=0.5;entryY=1;entryDx=0;entryDy=0;" parent="1" source="LSVWAHJbNo_uzlFZOcrg-20" target="Cgu9ZG7k7ZKk-AHkz6hC-4" edge="1">
          <mxGeometry relative="1" as="geometry">
            <mxPoint x="435" y="448" as="targetPoint" />
          </mxGeometry>
        </mxCell>
        <mxCell id="v8D_jbdJpXpKLo5C9jEz-19" style="edgeStyle=orthogonalEdgeStyle;rounded=0;orthogonalLoop=1;jettySize=auto;html=1;exitX=0.5;exitY=1;exitDx=0;exitDy=0;endArrow=oval;endFill=1;" parent="1" source="LSVWAHJbNo_uzlFZOcrg-20" edge="1">
          <mxGeometry relative="1" as="geometry">
            <mxPoint x="445" y="608" as="targetPoint" />
            <Array as="points" />
          </mxGeometry>
        </mxCell>
        <mxCell id="v8D_jbdJpXpKLo5C9jEz-21" style="edgeStyle=orthogonalEdgeStyle;rounded=0;orthogonalLoop=1;jettySize=auto;html=1;exitX=0.25;exitY=0;exitDx=0;exitDy=0;endArrow=oval;endFill=0;" parent="1" source="LSVWAHJbNo_uzlFZOcrg-20" edge="1">
          <mxGeometry relative="1" as="geometry">
            <mxPoint x="415" y="478" as="targetPoint" />
          </mxGeometry>
        </mxCell>
        <mxCell id="v8D_jbdJpXpKLo5C9jEz-23" style="edgeStyle=orthogonalEdgeStyle;rounded=0;orthogonalLoop=1;jettySize=auto;html=1;exitX=0;exitY=0.25;exitDx=0;exitDy=0;endArrow=oval;endFill=0;" parent="1" source="LSVWAHJbNo_uzlFZOcrg-20" edge="1">
          <mxGeometry relative="1" as="geometry">
            <mxPoint x="385" y="478" as="targetPoint" />
            <Array as="points">
              <mxPoint x="415" y="488" />
              <mxPoint x="386" y="488" />
              <mxPoint x="386" y="478" />
            </Array>
          </mxGeometry>
        </mxCell>
        <mxCell id="v8D_jbdJpXpKLo5C9jEz-50" style="edgeStyle=orthogonalEdgeStyle;rounded=0;orthogonalLoop=1;jettySize=auto;html=1;exitX=0.75;exitY=1;exitDx=0;exitDy=0;endArrow=oval;endFill=0;" parent="1" source="LSVWAHJbNo_uzlFZOcrg-20" edge="1">
          <mxGeometry relative="1" as="geometry">
            <mxPoint x="460" y="608" as="targetPoint" />
          </mxGeometry>
        </mxCell>
        <mxCell id="-EXne8myIF6QadxSK3d--1" style="edgeStyle=orthogonalEdgeStyle;rounded=0;orthogonalLoop=1;jettySize=auto;html=1;exitX=1;exitY=0.75;exitDx=0;exitDy=0;endArrow=oval;endFill=0;" parent="1" source="LSVWAHJbNo_uzlFZOcrg-20" target="-EXne8myIF6QadxSK3d--2" edge="1">
          <mxGeometry relative="1" as="geometry">
            <mxPoint x="495" y="528" as="targetPoint" />
          </mxGeometry>
        </mxCell>
        <mxCell id="BllFOEnSqAIYLHdjcKKW-1" style="edgeStyle=orthogonalEdgeStyle;rounded=0;orthogonalLoop=1;jettySize=auto;html=1;exitX=1;exitY=0;exitDx=0;exitDy=0;endArrow=oval;endFill=0;" parent="1" source="LSVWAHJbNo_uzlFZOcrg-20" edge="1">
          <mxGeometry relative="1" as="geometry">
            <mxPoint x="485" y="478" as="targetPoint" />
          </mxGeometry>
        </mxCell>
        <mxCell id="T9DS_cHOEE58H93hngrO-6" style="edgeStyle=orthogonalEdgeStyle;rounded=0;orthogonalLoop=1;jettySize=auto;html=1;exitX=0;exitY=0.5;exitDx=0;exitDy=0;endArrow=circle;endFill=0;endSize=2;" parent="1" source="LSVWAHJbNo_uzlFZOcrg-20" edge="1">
          <mxGeometry relative="1" as="geometry">
            <mxPoint x="395" y="533" as="targetPoint" />
          </mxGeometry>
        </mxCell>
        <mxCell id="T9DS_cHOEE58H93hngrO-21" style="edgeStyle=orthogonalEdgeStyle;rounded=0;orthogonalLoop=1;jettySize=auto;html=1;exitX=0;exitY=0.25;exitDx=0;exitDy=0;endArrow=oval;endFill=0;" parent="1" source="LSVWAHJbNo_uzlFZOcrg-20" edge="1">
          <mxGeometry relative="1" as="geometry">
            <mxPoint x="395" y="510.66666666666663" as="targetPoint" />
          </mxGeometry>
        </mxCell>
        <mxCell id="T9DS_cHOEE58H93hngrO-27" style="edgeStyle=orthogonalEdgeStyle;rounded=0;orthogonalLoop=1;jettySize=auto;html=1;exitX=0;exitY=0.75;exitDx=0;exitDy=0;endArrow=oval;endFill=0;" parent="1" source="LSVWAHJbNo_uzlFZOcrg-20" edge="1">
          <mxGeometry relative="1" as="geometry">
            <mxPoint x="395" y="555.6666666666666" as="targetPoint" />
          </mxGeometry>
        </mxCell>
        <mxCell id="T9DS_cHOEE58H93hngrO-29" style="edgeStyle=orthogonalEdgeStyle;rounded=0;orthogonalLoop=1;jettySize=auto;html=1;exitX=0;exitY=0.75;exitDx=0;exitDy=0;endArrow=circle;endFill=0;endSize=2;" parent="1" source="LSVWAHJbNo_uzlFZOcrg-20" edge="1">
          <mxGeometry relative="1" as="geometry">
            <mxPoint x="395" y="578" as="targetPoint" />
            <Array as="points">
              <mxPoint x="415" y="578" />
            </Array>
          </mxGeometry>
        </mxCell>
        <mxCell id="T9DS_cHOEE58H93hngrO-35" style="edgeStyle=orthogonalEdgeStyle;rounded=0;orthogonalLoop=1;jettySize=auto;html=1;exitX=1;exitY=0.5;exitDx=0;exitDy=0;endArrow=none;endFill=0;entryX=0;entryY=0.5;entryDx=0;entryDy=0;" parent="1" source="LSVWAHJbNo_uzlFZOcrg-20" target="T9DS_cHOEE58H93hngrO-36" edge="1">
          <mxGeometry relative="1" as="geometry">
            <mxPoint x="505" y="532.8095238095237" as="targetPoint" />
            <Array as="points" />
          </mxGeometry>
        </mxCell>
        <mxCell id="OafXDqewEPgiEgUnOMYC-1" style="edgeStyle=orthogonalEdgeStyle;rounded=0;orthogonalLoop=1;jettySize=auto;html=1;exitX=1;exitY=0.25;exitDx=0;exitDy=0;endArrow=oval;endFill=0;" parent="1" source="LSVWAHJbNo_uzlFZOcrg-20" edge="1">
          <mxGeometry relative="1" as="geometry">
            <mxPoint x="495" y="510.57142857142856" as="targetPoint" />
          </mxGeometry>
        </mxCell>
        <mxCell id="OafXDqewEPgiEgUnOMYC-3" style="edgeStyle=orthogonalEdgeStyle;rounded=0;orthogonalLoop=1;jettySize=auto;html=1;exitX=0.75;exitY=0;exitDx=0;exitDy=0;endArrow=oval;endFill=0;" parent="1" source="LSVWAHJbNo_uzlFZOcrg-20" edge="1">
          <mxGeometry relative="1" as="geometry">
            <mxPoint x="460.05555555555554" y="478" as="targetPoint" />
          </mxGeometry>
        </mxCell>
        <mxCell id="LSVWAHJbNo_uzlFZOcrg-20" value="Prodotto" style="whiteSpace=wrap;html=1;align=center;" parent="1" vertex="1">
          <mxGeometry x="415" y="488" width="60" height="90" as="geometry" />
        </mxCell>
        <mxCell id="LSVWAHJbNo_uzlFZOcrg-26" value="" style="edgeStyle=orthogonalEdgeStyle;rounded=0;orthogonalLoop=1;jettySize=auto;html=1;endArrow=none;endFill=0;" parent="1" source="LSVWAHJbNo_uzlFZOcrg-24" target="LSVWAHJbNo_uzlFZOcrg-4" edge="1">
          <mxGeometry relative="1" as="geometry" />
        </mxCell>
        <mxCell id="LSVWAHJbNo_uzlFZOcrg-24" value="Composto" style="shape=rhombus;perimeter=rhombusPerimeter;whiteSpace=wrap;html=1;align=center;" parent="1" vertex="1">
          <mxGeometry x="650" y="363" width="120" height="40" as="geometry" />
        </mxCell>
        <mxCell id="Cgu9ZG7k7ZKk-AHkz6hC-41" style="edgeStyle=orthogonalEdgeStyle;rounded=0;orthogonalLoop=1;jettySize=auto;html=1;exitX=1;exitY=0.5;exitDx=0;exitDy=0;endArrow=oval;endFill=0;" parent="1" source="LSVWAHJbNo_uzlFZOcrg-33" edge="1">
          <mxGeometry relative="1" as="geometry">
            <mxPoint x="220" y="295" as="targetPoint" />
          </mxGeometry>
        </mxCell>
        <mxCell id="LSVWAHJbNo_uzlFZOcrg-33" value="&lt;font style=&quot;font-size: 9px;&quot;&gt;Finalizza&lt;/font&gt;" style="shape=rhombus;perimeter=rhombusPerimeter;whiteSpace=wrap;html=1;align=center;" parent="1" vertex="1">
          <mxGeometry x="117.5" y="278" width="75" height="34" as="geometry" />
        </mxCell>
        <mxCell id="LSVWAHJbNo_uzlFZOcrg-36" value="" style="edgeStyle=orthogonalEdgeStyle;rounded=0;orthogonalLoop=1;jettySize=auto;html=1;endArrow=none;endFill=0;exitX=0.5;exitY=0;exitDx=0;exitDy=0;entryX=0.5;entryY=1;entryDx=0;entryDy=0;" parent="1" source="LSVWAHJbNo_uzlFZOcrg-35" target="LSVWAHJbNo_uzlFZOcrg-33" edge="1">
          <mxGeometry relative="1" as="geometry">
            <mxPoint x="435" y="591" as="sourcePoint" />
          </mxGeometry>
        </mxCell>
        <mxCell id="v8D_jbdJpXpKLo5C9jEz-56" style="edgeStyle=orthogonalEdgeStyle;rounded=0;orthogonalLoop=1;jettySize=auto;html=1;exitX=0.75;exitY=0;exitDx=0;exitDy=0;endArrow=oval;endFill=1;" parent="1" source="LSVWAHJbNo_uzlFZOcrg-35" edge="1">
          <mxGeometry relative="1" as="geometry">
            <mxPoint x="160" y="343" as="targetPoint" />
          </mxGeometry>
        </mxCell>
        <mxCell id="Cgu9ZG7k7ZKk-AHkz6hC-30" style="edgeStyle=orthogonalEdgeStyle;rounded=0;orthogonalLoop=1;jettySize=auto;html=1;exitX=1;exitY=0.5;exitDx=0;exitDy=0;entryX=0.5;entryY=0;entryDx=0;entryDy=0;endArrow=none;endFill=0;" parent="1" source="LSVWAHJbNo_uzlFZOcrg-35" target="LSVWAHJbNo_uzlFZOcrg-72" edge="1">
          <mxGeometry relative="1" as="geometry" />
        </mxCell>
        <mxCell id="SlRHfQLlN7Ac59IzPPvb-28" style="edgeStyle=orthogonalEdgeStyle;rounded=0;orthogonalLoop=1;jettySize=auto;html=1;endArrow=oval;endFill=0;" parent="1" source="LSVWAHJbNo_uzlFZOcrg-35" edge="1">
          <mxGeometry relative="1" as="geometry">
            <mxPoint x="155" y="420" as="targetPoint" />
          </mxGeometry>
        </mxCell>
        <mxCell id="LSVWAHJbNo_uzlFZOcrg-35" value="Ordine" style="whiteSpace=wrap;html=1;align=center;" parent="1" vertex="1">
          <mxGeometry x="115" y="353" width="80" height="40" as="geometry" />
        </mxCell>
        <mxCell id="LSVWAHJbNo_uzlFZOcrg-55" value="&lt;font style=&quot;font-size: 9px;&quot;&gt;(0,N)&lt;/font&gt;" style="text;html=1;align=right;verticalAlign=bottom;resizable=0;points=[];autosize=1;strokeColor=none;fillColor=none;" parent="1" vertex="1">
          <mxGeometry x="445" y="72" width="40" height="30" as="geometry" />
        </mxCell>
        <mxCell id="LSVWAHJbNo_uzlFZOcrg-56" value="&lt;font style=&quot;font-size: 9px;&quot;&gt;(1,1)&lt;/font&gt;" style="text;html=1;align=left;verticalAlign=bottom;resizable=0;points=[];autosize=1;strokeColor=none;fillColor=none;" parent="1" vertex="1">
          <mxGeometry x="355" y="50" width="40" height="30" as="geometry" />
        </mxCell>
        <mxCell id="LSVWAHJbNo_uzlFZOcrg-61" value="&lt;font style=&quot;font-size: 8px;&quot;&gt;(1,1)&lt;/font&gt;" style="text;html=1;align=left;verticalAlign=bottom;resizable=0;points=[];autosize=1;strokeColor=none;fillColor=none;" parent="1" vertex="1">
          <mxGeometry x="500" y="190" width="40" height="30" as="geometry" />
        </mxCell>
        <mxCell id="LSVWAHJbNo_uzlFZOcrg-62" value="&lt;font style=&quot;font-size: 8px;&quot;&gt;(1,1)&lt;/font&gt;" style="text;html=1;align=right;verticalAlign=bottom;resizable=0;points=[];autosize=1;strokeColor=none;fillColor=none;" parent="1" vertex="1">
          <mxGeometry x="595" y="190" width="40" height="30" as="geometry" />
        </mxCell>
        <mxCell id="LSVWAHJbNo_uzlFZOcrg-65" value="&lt;font style=&quot;font-size: 8px;&quot;&gt;(1,1)&lt;br&gt;&lt;/font&gt;" style="text;html=1;align=left;verticalAlign=top;resizable=0;points=[];autosize=1;strokeColor=none;fillColor=none;" parent="1" vertex="1">
          <mxGeometry x="435" y="388" width="40" height="30" as="geometry" />
        </mxCell>
        <mxCell id="LSVWAHJbNo_uzlFZOcrg-66" value="(0,N)" style="text;html=1;align=left;verticalAlign=bottom;resizable=0;points=[];autosize=1;strokeColor=none;fillColor=none;fontSize=7;" parent="1" vertex="1">
          <mxGeometry x="435" y="433" width="40" height="20" as="geometry" />
        </mxCell>
        <mxCell id="Cgu9ZG7k7ZKk-AHkz6hC-53" value="" style="edgeStyle=orthogonalEdgeStyle;rounded=0;orthogonalLoop=1;jettySize=auto;html=1;endArrow=none;endFill=0;" parent="1" source="LSVWAHJbNo_uzlFZOcrg-72" target="Cgu9ZG7k7ZKk-AHkz6hC-52" edge="1">
          <mxGeometry relative="1" as="geometry" />
        </mxCell>
        <mxCell id="LSVWAHJbNo_uzlFZOcrg-72" value="Contiene" style="shape=rhombus;perimeter=rhombusPerimeter;whiteSpace=wrap;html=1;align=center;" parent="1" vertex="1">
          <mxGeometry x="220" y="418" width="92" height="40" as="geometry" />
        </mxCell>
        <mxCell id="v8D_jbdJpXpKLo5C9jEz-2" value="&lt;font style=&quot;font-size: 10px;&quot;&gt;ID&lt;/font&gt;" style="text;html=1;align=center;verticalAlign=middle;resizable=0;points=[];autosize=1;strokeColor=none;fillColor=none;" parent="1" vertex="1">
          <mxGeometry x="400" y="258" width="30" height="30" as="geometry" />
        </mxCell>
        <mxCell id="v8D_jbdJpXpKLo5C9jEz-4" value="&lt;div&gt;&lt;font style=&quot;font-size: 7px;&quot;&gt;Username&lt;/font&gt;&lt;/div&gt;" style="text;html=1;align=center;verticalAlign=middle;resizable=0;points=[];autosize=1;strokeColor=none;fillColor=none;" parent="1" vertex="1">
          <mxGeometry x="475" y="218" width="60" height="30" as="geometry" />
        </mxCell>
        <mxCell id="v8D_jbdJpXpKLo5C9jEz-9" value="&lt;font style=&quot;font-size: 7px;&quot;&gt;email&lt;/font&gt;" style="text;html=1;align=center;verticalAlign=bottom;resizable=0;points=[];autosize=1;strokeColor=none;fillColor=none;" parent="1" vertex="1">
          <mxGeometry x="385" y="150" width="40" height="30" as="geometry" />
        </mxCell>
        <mxCell id="v8D_jbdJpXpKLo5C9jEz-11" value="&lt;font style=&quot;font-size: 8px;&quot;&gt;Password&lt;/font&gt;" style="text;html=1;align=left;verticalAlign=top;resizable=0;points=[];autosize=1;strokeColor=none;fillColor=none;" parent="1" vertex="1">
          <mxGeometry x="465" y="170" width="60" height="30" as="geometry" />
        </mxCell>
        <mxCell id="v8D_jbdJpXpKLo5C9jEz-13" value="&lt;font style=&quot;font-size: 9px;&quot;&gt;Nome&lt;/font&gt;" style="text;html=1;align=center;verticalAlign=middle;resizable=0;points=[];autosize=1;strokeColor=none;fillColor=none;" parent="1" vertex="1">
          <mxGeometry x="150" y="102" width="50" height="30" as="geometry" />
        </mxCell>
        <mxCell id="v8D_jbdJpXpKLo5C9jEz-17" value="&lt;font style=&quot;font-size: 8px;&quot;&gt;Taglia&lt;/font&gt;" style="text;html=1;align=center;verticalAlign=middle;resizable=0;points=[];autosize=1;strokeColor=none;fillColor=none;" parent="1" vertex="1">
          <mxGeometry x="110" y="90" width="40" height="30" as="geometry" />
        </mxCell>
        <mxCell id="v8D_jbdJpXpKLo5C9jEz-18" value="&lt;font style=&quot;font-size: 5px;&quot;&gt;(0,1)&lt;br&gt;&lt;/font&gt;" style="text;html=1;align=left;verticalAlign=middle;resizable=0;points=[];autosize=1;strokeColor=none;fillColor=none;" parent="1" vertex="1">
          <mxGeometry x="115" y="72" width="30" height="30" as="geometry" />
        </mxCell>
        <mxCell id="v8D_jbdJpXpKLo5C9jEz-20" value="&lt;font style=&quot;font-size: 8px;&quot;&gt;ID&lt;/font&gt;" style="text;html=1;align=center;verticalAlign=top;resizable=0;points=[];autosize=1;strokeColor=none;fillColor=none;" parent="1" vertex="1">
          <mxGeometry x="430" y="608" width="30" height="30" as="geometry" />
        </mxCell>
        <mxCell id="v8D_jbdJpXpKLo5C9jEz-22" value="&lt;font style=&quot;font-size: 7px;&quot;&gt;Nome&lt;/font&gt;" style="text;html=1;align=center;verticalAlign=middle;resizable=0;points=[];autosize=1;strokeColor=none;fillColor=none;" parent="1" vertex="1">
          <mxGeometry x="400" y="453" width="40" height="30" as="geometry" />
        </mxCell>
        <mxCell id="v8D_jbdJpXpKLo5C9jEz-24" value="&lt;font style=&quot;font-size: 7px;&quot;&gt;Disponibilità&lt;/font&gt;" style="text;html=1;align=center;verticalAlign=middle;resizable=0;points=[];autosize=1;strokeColor=none;fillColor=none;" parent="1" vertex="1">
          <mxGeometry x="355" y="453" width="60" height="30" as="geometry" />
        </mxCell>
        <mxCell id="v8D_jbdJpXpKLo5C9jEz-33" value="&lt;blockquote&gt;&lt;div align=&quot;justify&quot;&gt;&lt;font style=&quot;font-size: 7px;&quot;&gt;Data di&lt;/font&gt;&lt;br&gt;&lt;font style=&quot;font-size: 7px;&quot;&gt;nascita&lt;/font&gt;&lt;br&gt;&lt;/div&gt;&lt;/blockquote&gt;" style="text;html=1;align=center;verticalAlign=middle;resizable=0;points=[];autosize=1;strokeColor=none;fillColor=none;" parent="1" vertex="1">
          <mxGeometry x="25" y="10" width="130" height="70" as="geometry" />
        </mxCell>
        <mxCell id="v8D_jbdJpXpKLo5C9jEz-39" value="&lt;font style=&quot;font-size: 7px;&quot;&gt;Sterilizzato&lt;/font&gt;" style="text;html=1;align=center;verticalAlign=middle;resizable=0;points=[];autosize=1;strokeColor=none;fillColor=none;" parent="1" vertex="1">
          <mxGeometry x="60" y="60" width="60" height="30" as="geometry" />
        </mxCell>
        <mxCell id="v8D_jbdJpXpKLo5C9jEz-40" value="&lt;font style=&quot;font-size: 5px;&quot;&gt;(0,1)&lt;/font&gt;" style="text;html=1;align=center;verticalAlign=top;resizable=0;points=[];autosize=1;strokeColor=none;fillColor=none;horizontal=1;" parent="1" vertex="1">
          <mxGeometry x="85" y="72" width="30" height="30" as="geometry" />
        </mxCell>
        <mxCell id="v8D_jbdJpXpKLo5C9jEz-51" value="&lt;font style=&quot;font-size: 8px;&quot;&gt;Prezzo&lt;/font&gt;" style="text;html=1;align=center;verticalAlign=middle;resizable=0;points=[];autosize=1;strokeColor=none;fillColor=none;" parent="1" vertex="1">
          <mxGeometry x="440" y="608" width="50" height="30" as="geometry" />
        </mxCell>
        <mxCell id="v8D_jbdJpXpKLo5C9jEz-55" value="&lt;font style=&quot;font-size: 9px;&quot;&gt;Data&lt;/font&gt;" style="text;html=1;align=center;verticalAlign=middle;resizable=0;points=[];autosize=1;strokeColor=none;fillColor=none;" parent="1" vertex="1">
          <mxGeometry x="200" y="288" width="40" height="30" as="geometry" />
        </mxCell>
        <mxCell id="v8D_jbdJpXpKLo5C9jEz-57" value="&lt;font style=&quot;font-size: 9px;&quot;&gt;ID&lt;/font&gt;" style="text;html=1;align=center;verticalAlign=middle;resizable=0;points=[];autosize=1;strokeColor=none;fillColor=none;" parent="1" vertex="1">
          <mxGeometry x="150" y="323" width="30" height="30" as="geometry" />
        </mxCell>
        <mxCell id="-EXne8myIF6QadxSK3d--2" value="&lt;font style=&quot;font-size: 8px;&quot;&gt;IVA&lt;/font&gt;" style="text;html=1;align=center;verticalAlign=middle;resizable=0;points=[];autosize=1;strokeColor=none;fillColor=none;" parent="1" vertex="1">
          <mxGeometry x="475" y="566" width="40" height="30" as="geometry" />
        </mxCell>
        <mxCell id="BllFOEnSqAIYLHdjcKKW-2" value="&lt;font style=&quot;font-size: 8px;&quot;&gt;Path&lt;/font&gt;" style="text;html=1;align=center;verticalAlign=middle;resizable=0;points=[];autosize=1;strokeColor=none;fillColor=none;" parent="1" vertex="1">
          <mxGeometry x="475" y="460.5" width="40" height="30" as="geometry" />
        </mxCell>
        <mxCell id="BllFOEnSqAIYLHdjcKKW-5" value="&lt;font style=&quot;font-size: 8px;&quot;&gt;Titolo&lt;/font&gt;" style="text;html=1;align=center;verticalAlign=middle;resizable=0;points=[];autosize=1;strokeColor=none;fillColor=none;" parent="1" vertex="1">
          <mxGeometry x="350" y="303" width="40" height="30" as="geometry" />
        </mxCell>
        <mxCell id="BllFOEnSqAIYLHdjcKKW-7" value="&lt;font style=&quot;font-size: 7px;&quot;&gt;Commento&lt;/font&gt;" style="text;html=1;align=center;verticalAlign=middle;resizable=0;points=[];autosize=1;strokeColor=none;fillColor=none;" parent="1" vertex="1">
          <mxGeometry x="300" y="333" width="60" height="30" as="geometry" />
        </mxCell>
        <mxCell id="BllFOEnSqAIYLHdjcKKW-9" value="&lt;font style=&quot;font-size: 8px;&quot;&gt;Data&lt;br&gt;&lt;/font&gt;" style="text;html=1;align=center;verticalAlign=middle;resizable=0;points=[];autosize=1;strokeColor=none;fillColor=none;" parent="1" vertex="1">
          <mxGeometry x="500" y="328" width="40" height="30" as="geometry" />
        </mxCell>
        <mxCell id="BllFOEnSqAIYLHdjcKKW-11" value="&lt;font style=&quot;font-size: 6px;&quot;&gt;Valutazione&lt;/font&gt;" style="text;html=1;align=center;verticalAlign=middle;resizable=0;points=[];autosize=1;strokeColor=none;fillColor=none;" parent="1" vertex="1">
          <mxGeometry x="330" y="346" width="50" height="30" as="geometry" />
        </mxCell>
        <mxCell id="T9DS_cHOEE58H93hngrO-2" value="&lt;font style=&quot;font-size: 6px;&quot;&gt;isAdmin&lt;/font&gt;" style="text;html=1;align=center;verticalAlign=middle;resizable=0;points=[];autosize=1;strokeColor=none;fillColor=none;" parent="1" vertex="1">
          <mxGeometry x="415" y="150" width="40" height="30" as="geometry" />
        </mxCell>
        <mxCell id="T9DS_cHOEE58H93hngrO-4" value="&lt;font style=&quot;font-size: 9px;&quot;&gt;Categoria&lt;/font&gt;" style="text;html=1;align=center;verticalAlign=middle;resizable=0;points=[];autosize=1;strokeColor=none;fillColor=none;" parent="1" vertex="1">
          <mxGeometry x="350" y="518" width="60" height="30" as="geometry" />
        </mxCell>
        <mxCell id="T9DS_cHOEE58H93hngrO-22" value="&lt;font style=&quot;font-size: 8px;&quot;&gt;Taglia&lt;/font&gt;" style="text;html=1;align=center;verticalAlign=middle;resizable=0;points=[];autosize=1;strokeColor=none;fillColor=none;" parent="1" vertex="1">
          <mxGeometry x="355" y="496" width="40" height="30" as="geometry" />
        </mxCell>
        <mxCell id="T9DS_cHOEE58H93hngrO-25" style="edgeStyle=orthogonalEdgeStyle;rounded=0;orthogonalLoop=1;jettySize=auto;html=1;exitX=0.25;exitY=1;exitDx=0;exitDy=0;entryX=0.033;entryY=0.022;entryDx=0;entryDy=0;entryPerimeter=0;endArrow=oval;endFill=0;" parent="1" source="LSVWAHJbNo_uzlFZOcrg-20" target="v8D_jbdJpXpKLo5C9jEz-20" edge="1">
          <mxGeometry relative="1" as="geometry" />
        </mxCell>
        <mxCell id="T9DS_cHOEE58H93hngrO-26" value="&lt;div style=&quot;font-size: 9px;&quot;&gt;&lt;font style=&quot;font-size: 9px;&quot;&gt;Per&lt;/font&gt;&lt;/div&gt;&lt;div style=&quot;font-size: 9px;&quot;&gt;&lt;font style=&quot;font-size: 9px;&quot;&gt;&lt;font style=&quot;font-size: 9px;&quot;&gt;sterilizzati&lt;/font&gt;&lt;font style=&quot;font-size: 9px;&quot;&gt;&lt;br&gt;&lt;/font&gt;&lt;/font&gt;&lt;/div&gt;" style="text;html=1;align=center;verticalAlign=middle;resizable=0;points=[];autosize=1;strokeColor=none;fillColor=none;" parent="1" vertex="1">
          <mxGeometry x="385" y="601" width="60" height="40" as="geometry" />
        </mxCell>
        <mxCell id="T9DS_cHOEE58H93hngrO-28" value="&lt;font style=&quot;font-size: 9px;&quot;&gt;Min età&lt;br&gt;&lt;/font&gt;" style="text;html=1;align=center;verticalAlign=middle;resizable=0;points=[];autosize=1;strokeColor=none;fillColor=none;" parent="1" vertex="1">
          <mxGeometry x="350" y="541" width="50" height="30" as="geometry" />
        </mxCell>
        <mxCell id="T9DS_cHOEE58H93hngrO-30" value="&lt;font style=&quot;font-size: 9px;&quot;&gt;Max età&lt;br&gt;&lt;/font&gt;" style="text;html=1;align=center;verticalAlign=middle;resizable=0;points=[];autosize=1;strokeColor=none;fillColor=none;" parent="1" vertex="1">
          <mxGeometry x="345" y="561" width="60" height="30" as="geometry" />
        </mxCell>
        <mxCell id="T9DS_cHOEE58H93hngrO-31" value="&lt;font style=&quot;font-size: 5px;&quot;&gt;(0,1)&lt;/font&gt;" style="text;html=1;align=center;verticalAlign=top;resizable=0;points=[];autosize=1;strokeColor=none;fillColor=none;horizontal=1;" parent="1" vertex="1">
          <mxGeometry x="385" y="483" width="30" height="30" as="geometry" />
        </mxCell>
        <mxCell id="T9DS_cHOEE58H93hngrO-32" value="&lt;font style=&quot;font-size: 5px;&quot;&gt;(0,1)&lt;/font&gt;" style="text;html=1;align=center;verticalAlign=top;resizable=0;points=[];autosize=1;strokeColor=none;fillColor=none;horizontal=1;" parent="1" vertex="1">
          <mxGeometry x="390" y="536" width="30" height="30" as="geometry" />
        </mxCell>
        <mxCell id="T9DS_cHOEE58H93hngrO-33" value="&lt;font style=&quot;font-size: 5px;&quot;&gt;(0,1)&lt;/font&gt;" style="text;html=1;align=center;verticalAlign=top;resizable=0;points=[];autosize=1;strokeColor=none;fillColor=none;horizontal=1;" parent="1" vertex="1">
          <mxGeometry x="390" y="558" width="30" height="30" as="geometry" />
        </mxCell>
        <mxCell id="T9DS_cHOEE58H93hngrO-34" value="&lt;font style=&quot;font-size: 5px;&quot;&gt;(0,1)&lt;/font&gt;" style="text;html=1;align=center;verticalAlign=top;resizable=0;points=[];autosize=1;strokeColor=none;fillColor=none;horizontal=1;" parent="1" vertex="1">
          <mxGeometry x="410" y="578" width="30" height="30" as="geometry" />
        </mxCell>
        <mxCell id="T9DS_cHOEE58H93hngrO-39" value="" style="edgeStyle=orthogonalEdgeStyle;rounded=0;orthogonalLoop=1;jettySize=auto;html=1;endArrow=none;endFill=0;" parent="1" source="T9DS_cHOEE58H93hngrO-36" target="T9DS_cHOEE58H93hngrO-38" edge="1">
          <mxGeometry relative="1" as="geometry">
            <Array as="points">
              <mxPoint x="575" y="533" />
              <mxPoint x="575" y="533" />
            </Array>
          </mxGeometry>
        </mxCell>
        <mxCell id="T9DS_cHOEE58H93hngrO-36" value="&lt;font style=&quot;font-size: 7px;&quot;&gt;Riferimento&lt;br&gt;&lt;/font&gt;" style="rhombus;whiteSpace=wrap;html=1;" parent="1" vertex="1">
          <mxGeometry x="545" y="515.5" width="60" height="32.5" as="geometry" />
        </mxCell>
        <mxCell id="T9DS_cHOEE58H93hngrO-44" style="edgeStyle=orthogonalEdgeStyle;rounded=0;orthogonalLoop=1;jettySize=auto;html=1;endArrow=oval;endFill=1;" parent="1" edge="1">
          <mxGeometry relative="1" as="geometry">
            <mxPoint x="670" y="548" as="targetPoint" />
            <Array as="points">
              <mxPoint x="703" y="508" />
              <mxPoint x="670" y="508" />
            </Array>
            <mxPoint x="725" y="508" as="sourcePoint" />
          </mxGeometry>
        </mxCell>
        <mxCell id="Cgu9ZG7k7ZKk-AHkz6hC-35" style="edgeStyle=orthogonalEdgeStyle;rounded=0;orthogonalLoop=1;jettySize=auto;html=1;exitX=0.5;exitY=1;exitDx=0;exitDy=0;endArrow=oval;endFill=0;" parent="1" source="T9DS_cHOEE58H93hngrO-38" edge="1">
          <mxGeometry relative="1" as="geometry">
            <mxPoint x="720" y="568" as="targetPoint" />
          </mxGeometry>
        </mxCell>
        <mxCell id="T9DS_cHOEE58H93hngrO-38" value="CartItem" style="rounded=0;whiteSpace=wrap;html=1;" parent="1" vertex="1">
          <mxGeometry x="675" y="520.5" width="70" height="25" as="geometry" />
        </mxCell>
        <mxCell id="T9DS_cHOEE58H93hngrO-42" value="(1,1)" style="text;html=1;align=left;verticalAlign=top;resizable=0;points=[];autosize=1;strokeColor=none;fillColor=none;fontSize=7;" parent="1" vertex="1">
          <mxGeometry x="595" y="506.5" width="40" height="20" as="geometry" />
        </mxCell>
        <mxCell id="T9DS_cHOEE58H93hngrO-43" value="(1,1)" style="text;html=1;align=left;verticalAlign=top;resizable=0;points=[];autosize=1;strokeColor=none;fillColor=none;fontSize=7;" parent="1" vertex="1">
          <mxGeometry x="525" y="506.5" width="40" height="20" as="geometry" />
        </mxCell>
        <mxCell id="T9DS_cHOEE58H93hngrO-47" value="&lt;font style=&quot;font-size: 8px;&quot;&gt;Quantità&lt;/font&gt;" style="text;html=1;align=center;verticalAlign=middle;resizable=0;points=[];autosize=1;strokeColor=none;fillColor=none;" parent="1" vertex="1">
          <mxGeometry x="695" y="561" width="50" height="30" as="geometry" />
        </mxCell>
        <mxCell id="T9DS_cHOEE58H93hngrO-49" value="&lt;font style=&quot;font-size: 8px;&quot;&gt;imgPath&lt;/font&gt;" style="text;html=1;align=center;verticalAlign=middle;resizable=0;points=[];autosize=1;strokeColor=none;fillColor=none;" parent="1" vertex="1">
          <mxGeometry x="155" width="50" height="30" as="geometry" />
        </mxCell>
        <mxCell id="T9DS_cHOEE58H93hngrO-51" value="&lt;font style=&quot;font-size: 7px;&quot;&gt;imgPath&lt;/font&gt;" style="text;html=1;align=center;verticalAlign=middle;resizable=0;points=[];autosize=1;strokeColor=none;fillColor=none;" parent="1" vertex="1">
          <mxGeometry x="445" y="150" width="50" height="30" as="geometry" />
        </mxCell>
        <mxCell id="Cgu9ZG7k7ZKk-AHkz6hC-18" style="edgeStyle=orthogonalEdgeStyle;rounded=0;orthogonalLoop=1;jettySize=auto;html=1;exitX=0;exitY=0.75;exitDx=0;exitDy=0;endArrow=oval;endFill=0;" parent="1" source="Cgu9ZG7k7ZKk-AHkz6hC-1" edge="1">
          <mxGeometry relative="1" as="geometry">
            <mxPoint x="375" y="358" as="targetPoint" />
          </mxGeometry>
        </mxCell>
        <mxCell id="Cgu9ZG7k7ZKk-AHkz6hC-19" style="edgeStyle=orthogonalEdgeStyle;rounded=0;orthogonalLoop=1;jettySize=auto;html=1;endArrow=oval;endFill=0;" parent="1" source="Cgu9ZG7k7ZKk-AHkz6hC-1" target="BllFOEnSqAIYLHdjcKKW-9" edge="1">
          <mxGeometry relative="1" as="geometry">
            <Array as="points">
              <mxPoint x="475" y="343" />
              <mxPoint x="475" y="343" />
            </Array>
          </mxGeometry>
        </mxCell>
        <mxCell id="Cgu9ZG7k7ZKk-AHkz6hC-1" value="Recensione" style="rounded=0;whiteSpace=wrap;html=1;" parent="1" vertex="1">
          <mxGeometry x="400" y="328" width="70" height="40" as="geometry" />
        </mxCell>
        <mxCell id="Cgu9ZG7k7ZKk-AHkz6hC-5" style="edgeStyle=orthogonalEdgeStyle;rounded=0;orthogonalLoop=1;jettySize=auto;html=1;exitX=0.5;exitY=0;exitDx=0;exitDy=0;entryX=0.5;entryY=1;entryDx=0;entryDy=0;endArrow=none;endFill=0;" parent="1" source="Cgu9ZG7k7ZKk-AHkz6hC-4" target="Cgu9ZG7k7ZKk-AHkz6hC-1" edge="1">
          <mxGeometry relative="1" as="geometry" />
        </mxCell>
        <mxCell id="Cgu9ZG7k7ZKk-AHkz6hC-4" value="&lt;font style=&quot;font-size: 10px;&quot;&gt;RP&lt;/font&gt;" style="rhombus;whiteSpace=wrap;html=1;" parent="1" vertex="1">
          <mxGeometry x="395" y="408" width="80" height="30" as="geometry" />
        </mxCell>
        <mxCell id="Cgu9ZG7k7ZKk-AHkz6hC-10" style="edgeStyle=orthogonalEdgeStyle;rounded=0;orthogonalLoop=1;jettySize=auto;html=1;exitX=0.5;exitY=1;exitDx=0;exitDy=0;entryX=0.5;entryY=0;entryDx=0;entryDy=0;endArrow=none;endFill=0;" parent="1" source="Cgu9ZG7k7ZKk-AHkz6hC-7" target="Cgu9ZG7k7ZKk-AHkz6hC-1" edge="1">
          <mxGeometry relative="1" as="geometry" />
        </mxCell>
        <mxCell id="Cgu9ZG7k7ZKk-AHkz6hC-7" value="&lt;font style=&quot;font-size: 9px;&quot;&gt;UR&lt;/font&gt;" style="rhombus;whiteSpace=wrap;html=1;" parent="1" vertex="1">
          <mxGeometry x="395" y="273" width="80" height="30" as="geometry" />
        </mxCell>
        <mxCell id="Cgu9ZG7k7ZKk-AHkz6hC-11" value="&lt;font style=&quot;font-size: 6px;&quot;&gt;(0,N)&lt;/font&gt;" style="text;html=1;align=left;verticalAlign=top;resizable=0;points=[];autosize=1;strokeColor=none;fillColor=none;" parent="1" vertex="1">
          <mxGeometry x="435" y="248" width="40" height="30" as="geometry" />
        </mxCell>
        <mxCell id="Cgu9ZG7k7ZKk-AHkz6hC-12" value="&lt;font style=&quot;font-size: 7px;&quot;&gt;(1,1)&lt;/font&gt;" style="text;html=1;align=center;verticalAlign=middle;resizable=0;points=[];autosize=1;strokeColor=none;fillColor=none;" parent="1" vertex="1">
          <mxGeometry x="435" y="288" width="40" height="30" as="geometry" />
        </mxCell>
        <mxCell id="Cgu9ZG7k7ZKk-AHkz6hC-15" value="" style="endArrow=oval;html=1;rounded=0;endFill=1;" parent="1" edge="1">
          <mxGeometry width="50" height="50" relative="1" as="geometry">
            <mxPoint x="415" y="383" as="sourcePoint" />
            <mxPoint x="415" y="318" as="targetPoint" />
            <Array as="points">
              <mxPoint x="485" y="383" />
              <mxPoint x="485" y="348" />
              <mxPoint x="485" y="318" />
            </Array>
          </mxGeometry>
        </mxCell>
        <mxCell id="Cgu9ZG7k7ZKk-AHkz6hC-39" value="&lt;font style=&quot;font-size: 9px;&quot;&gt;(1,1)&lt;/font&gt;" style="text;html=1;align=center;verticalAlign=middle;resizable=0;points=[];autosize=1;strokeColor=none;fillColor=none;" parent="1" vertex="1">
          <mxGeometry x="710" y="403" width="40" height="30" as="geometry" />
        </mxCell>
        <mxCell id="Cgu9ZG7k7ZKk-AHkz6hC-40" value="&lt;font style=&quot;font-size: 8px;&quot;&gt;(0,N)&lt;/font&gt;" style="text;html=1;align=center;verticalAlign=middle;resizable=0;points=[];autosize=1;strokeColor=none;fillColor=none;" parent="1" vertex="1">
          <mxGeometry x="710" y="338" width="40" height="30" as="geometry" />
        </mxCell>
        <mxCell id="Cgu9ZG7k7ZKk-AHkz6hC-43" value="&lt;font style=&quot;font-size: 9px;&quot;&gt;(1,1)&lt;/font&gt;" style="text;html=1;align=center;verticalAlign=middle;resizable=0;points=[];autosize=1;strokeColor=none;fillColor=none;" parent="1" vertex="1">
          <mxGeometry x="260" y="393" width="40" height="30" as="geometry" />
        </mxCell>
        <mxCell id="Cgu9ZG7k7ZKk-AHkz6hC-44" value="&lt;div&gt;&lt;font style=&quot;font-size: 8px;&quot;&gt;(1,N)&lt;/font&gt;&lt;/div&gt;" style="text;html=1;align=center;verticalAlign=middle;resizable=0;points=[];autosize=1;strokeColor=none;fillColor=none;" parent="1" vertex="1">
          <mxGeometry x="200" y="346" width="40" height="30" as="geometry" />
        </mxCell>
        <mxCell id="Cgu9ZG7k7ZKk-AHkz6hC-45" value="&lt;div&gt;&lt;font style=&quot;font-size: 8px;&quot;&gt;(1,N)&lt;/font&gt;&lt;/div&gt;" style="text;html=1;align=center;verticalAlign=middle;resizable=0;points=[];autosize=1;strokeColor=none;fillColor=none;" parent="1" vertex="1">
          <mxGeometry x="165" y="258" width="40" height="30" as="geometry" />
        </mxCell>
        <mxCell id="Cgu9ZG7k7ZKk-AHkz6hC-46" value="&lt;font style=&quot;font-size: 9px;&quot;&gt;(1,1)&lt;/font&gt;" style="text;html=1;align=center;verticalAlign=middle;resizable=0;points=[];autosize=1;strokeColor=none;fillColor=none;" parent="1" vertex="1">
          <mxGeometry x="120" y="303" width="40" height="30" as="geometry" />
        </mxCell>
        <mxCell id="Cgu9ZG7k7ZKk-AHkz6hC-48" value="&lt;font style=&quot;font-size: 9px;&quot;&gt;ID&lt;/font&gt;" style="text;html=1;align=center;verticalAlign=middle;resizable=0;points=[];autosize=1;strokeColor=none;fillColor=none;" parent="1" vertex="1">
          <mxGeometry x="635" y="176" width="30" height="30" as="geometry" />
        </mxCell>
        <mxCell id="Cgu9ZG7k7ZKk-AHkz6hC-63" style="edgeStyle=orthogonalEdgeStyle;rounded=0;orthogonalLoop=1;jettySize=auto;html=1;entryX=0.5;entryY=0;entryDx=0;entryDy=0;endArrow=none;endFill=0;" parent="1" source="Cgu9ZG7k7ZKk-AHkz6hC-52" target="Cgu9ZG7k7ZKk-AHkz6hC-62" edge="1">
          <mxGeometry relative="1" as="geometry" />
        </mxCell>
        <mxCell id="Cgu9ZG7k7ZKk-AHkz6hC-67" style="edgeStyle=orthogonalEdgeStyle;rounded=0;orthogonalLoop=1;jettySize=auto;html=1;exitX=0.75;exitY=0;exitDx=0;exitDy=0;endArrow=oval;endFill=0;" parent="1" source="Cgu9ZG7k7ZKk-AHkz6hC-52" edge="1">
          <mxGeometry relative="1" as="geometry">
            <mxPoint x="282.96153846153834" y="480.49999999999994" as="targetPoint" />
          </mxGeometry>
        </mxCell>
        <mxCell id="Cgu9ZG7k7ZKk-AHkz6hC-68" style="edgeStyle=orthogonalEdgeStyle;rounded=0;orthogonalLoop=1;jettySize=auto;html=1;endArrow=circle;endFill=0;endSize=2;exitX=0.189;exitY=0.042;exitDx=0;exitDy=0;exitPerimeter=0;" parent="1" source="Cgu9ZG7k7ZKk-AHkz6hC-52" edge="1">
          <mxGeometry relative="1" as="geometry">
            <mxPoint x="245.00307692307692" y="475.49999999999994" as="targetPoint" />
            <mxPoint x="245" y="490.5" as="sourcePoint" />
          </mxGeometry>
        </mxCell>
        <mxCell id="bJ4yHHy2VVQf3IYvv8jz-1" style="edgeStyle=orthogonalEdgeStyle;rounded=0;orthogonalLoop=1;jettySize=auto;html=1;exitX=1;exitY=0.25;exitDx=0;exitDy=0;endArrow=oval;endFill=0;" edge="1" parent="1" source="Cgu9ZG7k7ZKk-AHkz6hC-52">
          <mxGeometry relative="1" as="geometry">
            <mxPoint x="320" y="499.2777777777777" as="targetPoint" />
          </mxGeometry>
        </mxCell>
        <mxCell id="bJ4yHHy2VVQf3IYvv8jz-3" style="edgeStyle=orthogonalEdgeStyle;rounded=0;orthogonalLoop=1;jettySize=auto;html=1;exitX=1;exitY=0.75;exitDx=0;exitDy=0;endArrow=oval;endFill=0;strokeWidth=1;" edge="1" parent="1" source="Cgu9ZG7k7ZKk-AHkz6hC-52">
          <mxGeometry relative="1" as="geometry">
            <mxPoint x="320" y="511.7777777777777" as="targetPoint" />
          </mxGeometry>
        </mxCell>
        <mxCell id="Cgu9ZG7k7ZKk-AHkz6hC-52" value="OrderItem" style="whiteSpace=wrap;html=1;" parent="1" vertex="1">
          <mxGeometry x="232" y="493" width="68" height="25" as="geometry" />
        </mxCell>
        <mxCell id="Cgu9ZG7k7ZKk-AHkz6hC-56" value="" style="endArrow=none;html=1;rounded=0;exitX=0.5;exitY=0;exitDx=0;exitDy=0;entryX=0.5;entryY=1;entryDx=0;entryDy=0;" parent="1" source="T9DS_cHOEE58H93hngrO-38" target="LSVWAHJbNo_uzlFZOcrg-24" edge="1">
          <mxGeometry width="50" height="50" relative="1" as="geometry">
            <mxPoint x="575" y="468" as="sourcePoint" />
            <mxPoint x="625" y="418" as="targetPoint" />
          </mxGeometry>
        </mxCell>
        <mxCell id="Cgu9ZG7k7ZKk-AHkz6hC-58" value="&lt;font style=&quot;font-size: 9px;&quot;&gt;Quantità&lt;/font&gt;" style="text;html=1;align=center;verticalAlign=middle;resizable=0;points=[];autosize=1;strokeColor=none;fillColor=none;" parent="1" vertex="1">
          <mxGeometry x="265" y="455.5" width="60" height="30" as="geometry" />
        </mxCell>
        <mxCell id="Cgu9ZG7k7ZKk-AHkz6hC-60" value="&lt;font style=&quot;font-size: 9px;&quot;&gt;Prezzo&lt;/font&gt;" style="text;html=1;align=center;verticalAlign=middle;resizable=0;points=[];autosize=1;strokeColor=none;fillColor=none;" parent="1" vertex="1">
          <mxGeometry x="215" y="455.5" width="50" height="30" as="geometry" />
        </mxCell>
        <mxCell id="Cgu9ZG7k7ZKk-AHkz6hC-62" value="&lt;font style=&quot;font-size: 9px;&quot;&gt;Riferimento&lt;/font&gt;" style="rhombus;whiteSpace=wrap;html=1;" parent="1" vertex="1">
          <mxGeometry x="221.5" y="554.25" width="89" height="37.5" as="geometry" />
        </mxCell>
        <mxCell id="Cgu9ZG7k7ZKk-AHkz6hC-64" style="edgeStyle=orthogonalEdgeStyle;rounded=0;orthogonalLoop=1;jettySize=auto;html=1;entryX=-0.008;entryY=0.392;entryDx=0;entryDy=0;entryPerimeter=0;endArrow=none;endFill=0;" parent="1" source="Cgu9ZG7k7ZKk-AHkz6hC-62" target="LSVWAHJbNo_uzlFZOcrg-20" edge="1">
          <mxGeometry relative="1" as="geometry">
            <Array as="points">
              <mxPoint x="335" y="573" />
              <mxPoint x="335" y="523" />
            </Array>
          </mxGeometry>
        </mxCell>
        <mxCell id="Cgu9ZG7k7ZKk-AHkz6hC-65" value="&lt;font style=&quot;font-size: 9px;&quot;&gt;(1,1)&lt;/font&gt;" style="text;html=1;align=center;verticalAlign=middle;resizable=0;points=[];autosize=1;strokeColor=none;fillColor=none;" parent="1" vertex="1">
          <mxGeometry x="235" y="531" width="40" height="30" as="geometry" />
        </mxCell>
        <mxCell id="Cgu9ZG7k7ZKk-AHkz6hC-66" value="&lt;font style=&quot;font-size: 9px;&quot;&gt;(1,1)&lt;/font&gt;" style="text;html=1;align=center;verticalAlign=middle;resizable=0;points=[];autosize=1;strokeColor=none;fillColor=none;" parent="1" vertex="1">
          <mxGeometry x="295" y="548" width="40" height="30" as="geometry" />
        </mxCell>
        <mxCell id="Cgu9ZG7k7ZKk-AHkz6hC-69" value="" style="endArrow=oval;html=1;rounded=0;endFill=1;strokeColor=default;" parent="1" edge="1">
          <mxGeometry width="50" height="50" relative="1" as="geometry">
            <mxPoint x="225" y="490.5" as="sourcePoint" />
            <mxPoint x="275" y="540.5" as="targetPoint" />
            <Array as="points">
              <mxPoint x="225" y="540.5" />
            </Array>
          </mxGeometry>
        </mxCell>
        <mxCell id="x-2FUSIgI486Elk6Vbch-2" style="edgeStyle=orthogonalEdgeStyle;rounded=0;orthogonalLoop=1;jettySize=auto;html=1;exitX=0.25;exitY=1;exitDx=0;exitDy=0;endArrow=oval;endFill=1;" parent="1" source="x-2FUSIgI486Elk6Vbch-1" edge="1">
          <mxGeometry relative="1" as="geometry">
            <mxPoint x="52.37931034482767" y="628" as="targetPoint" />
          </mxGeometry>
        </mxCell>
        <mxCell id="x-2FUSIgI486Elk6Vbch-4" style="edgeStyle=orthogonalEdgeStyle;rounded=0;orthogonalLoop=1;jettySize=auto;html=1;exitX=0.75;exitY=1;exitDx=0;exitDy=0;endArrow=oval;endFill=0;" parent="1" source="x-2FUSIgI486Elk6Vbch-1" edge="1">
          <mxGeometry relative="1" as="geometry">
            <mxPoint x="87.41379310344831" y="628" as="targetPoint" />
          </mxGeometry>
        </mxCell>
        <mxCell id="x-2FUSIgI486Elk6Vbch-12" value="" style="edgeStyle=orthogonalEdgeStyle;rounded=0;orthogonalLoop=1;jettySize=auto;html=1;entryX=0;entryY=0.5;entryDx=0;entryDy=0;endArrow=none;endFill=0;" parent="1" source="x-2FUSIgI486Elk6Vbch-1" target="x-2FUSIgI486Elk6Vbch-11" edge="1">
          <mxGeometry relative="1" as="geometry" />
        </mxCell>
        <mxCell id="x-2FUSIgI486Elk6Vbch-1" value="Animale" style="whiteSpace=wrap;html=1;" parent="1" vertex="1">
          <mxGeometry x="35" y="571" width="70" height="35" as="geometry" />
        </mxCell>
        <mxCell id="x-2FUSIgI486Elk6Vbch-3" value="&lt;font style=&quot;font-size: 10px;&quot;&gt;ID&lt;/font&gt;" style="text;html=1;align=center;verticalAlign=middle;resizable=0;points=[];autosize=1;strokeColor=none;fillColor=none;" parent="1" vertex="1">
          <mxGeometry x="40" y="626" width="30" height="30" as="geometry" />
        </mxCell>
        <mxCell id="x-2FUSIgI486Elk6Vbch-5" value="&lt;font style=&quot;font-size: 10px;&quot;&gt;Nome&lt;/font&gt;" style="text;html=1;align=center;verticalAlign=middle;resizable=0;points=[];autosize=1;strokeColor=none;fillColor=none;" parent="1" vertex="1">
          <mxGeometry x="70" y="626" width="50" height="30" as="geometry" />
        </mxCell>
        <mxCell id="x-2FUSIgI486Elk6Vbch-8" style="edgeStyle=orthogonalEdgeStyle;rounded=0;orthogonalLoop=1;jettySize=auto;html=1;entryX=0.5;entryY=0;entryDx=0;entryDy=0;endArrow=none;endFill=0;" parent="1" source="x-2FUSIgI486Elk6Vbch-7" target="x-2FUSIgI486Elk6Vbch-1" edge="1">
          <mxGeometry relative="1" as="geometry" />
        </mxCell>
        <mxCell id="x-2FUSIgI486Elk6Vbch-7" value="tipo" style="rhombus;whiteSpace=wrap;html=1;" parent="1" vertex="1">
          <mxGeometry x="20" y="358" width="70" height="40" as="geometry" />
        </mxCell>
        <mxCell id="x-2FUSIgI486Elk6Vbch-11" value="tipo" style="rhombus;whiteSpace=wrap;html=1;" parent="1" vertex="1">
          <mxGeometry x="186" y="638" width="85" height="30" as="geometry" />
        </mxCell>
        <mxCell id="x-2FUSIgI486Elk6Vbch-13" style="edgeStyle=orthogonalEdgeStyle;rounded=0;orthogonalLoop=1;jettySize=auto;html=1;entryX=1.012;entryY=0.575;entryDx=0;entryDy=0;entryPerimeter=0;exitX=1;exitY=0.5;exitDx=0;exitDy=0;endArrow=none;endFill=0;" parent="1" source="x-2FUSIgI486Elk6Vbch-11" target="LSVWAHJbNo_uzlFZOcrg-20" edge="1">
          <mxGeometry relative="1" as="geometry">
            <Array as="points">
              <mxPoint x="525" y="653" />
              <mxPoint x="525" y="540" />
            </Array>
          </mxGeometry>
        </mxCell>
        <mxCell id="x-2FUSIgI486Elk6Vbch-14" value="&lt;font style=&quot;font-size: 9px;&quot;&gt;(1,1)&lt;/font&gt;" style="text;html=1;align=center;verticalAlign=middle;resizable=0;points=[];autosize=1;strokeColor=none;fillColor=none;" parent="1" vertex="1">
          <mxGeometry x="50" y="336" width="40" height="30" as="geometry" />
        </mxCell>
        <mxCell id="x-2FUSIgI486Elk6Vbch-15" value="&lt;font style=&quot;font-size: 9px;&quot;&gt;(1,N)&lt;/font&gt;" style="text;html=1;align=center;verticalAlign=middle;resizable=0;points=[];autosize=1;strokeColor=none;fillColor=none;" parent="1" vertex="1">
          <mxGeometry x="50" y="393" width="40" height="30" as="geometry" />
        </mxCell>
        <mxCell id="x-2FUSIgI486Elk6Vbch-17" value="&lt;font style=&quot;font-size: 9px;&quot;&gt;(1,1)&lt;/font&gt;" style="text;html=1;align=center;verticalAlign=middle;resizable=0;points=[];autosize=1;strokeColor=none;fillColor=none;" parent="1" vertex="1">
          <mxGeometry x="260" y="626" width="40" height="30" as="geometry" />
        </mxCell>
        <mxCell id="x-2FUSIgI486Elk6Vbch-18" value="&lt;font style=&quot;font-size: 9px;&quot;&gt;(1,N)&lt;/font&gt;" style="text;html=1;align=center;verticalAlign=middle;resizable=0;points=[];autosize=1;strokeColor=none;fillColor=none;" parent="1" vertex="1">
          <mxGeometry x="165" y="626" width="40" height="30" as="geometry" />
        </mxCell>
        <mxCell id="OafXDqewEPgiEgUnOMYC-2" value="&lt;font style=&quot;font-size: 8px;&quot;&gt;Visibile&lt;/font&gt;" style="text;html=1;align=center;verticalAlign=middle;resizable=0;points=[];autosize=1;strokeColor=none;fillColor=none;" parent="1" vertex="1">
          <mxGeometry x="485" y="490.5" width="50" height="30" as="geometry" />
        </mxCell>
        <mxCell id="OafXDqewEPgiEgUnOMYC-4" value="&lt;font style=&quot;font-size: 7px;&quot;&gt;Descrizione&lt;/font&gt;" style="text;html=1;align=center;verticalAlign=middle;resizable=0;points=[];autosize=1;strokeColor=none;fillColor=none;" parent="1" vertex="1">
          <mxGeometry x="435" y="453" width="60" height="30" as="geometry" />
        </mxCell>
        <mxCell id="OafXDqewEPgiEgUnOMYC-5" value="" style="edgeStyle=none;orthogonalLoop=1;jettySize=auto;html=1;rounded=0;endArrow=oval;endFill=1;" parent="1" edge="1">
          <mxGeometry width="100" relative="1" as="geometry">
            <mxPoint x="165" y="88" as="sourcePoint" />
            <mxPoint x="225" y="48" as="targetPoint" />
            <Array as="points">
              <mxPoint x="225" y="88" />
            </Array>
          </mxGeometry>
        </mxCell>
        <mxCell id="OafXDqewEPgiEgUnOMYC-6" value="&lt;div&gt;&lt;br&gt;&lt;/div&gt;" style="edgeLabel;html=1;align=center;verticalAlign=middle;resizable=0;points=[];" parent="OafXDqewEPgiEgUnOMYC-5" vertex="1" connectable="0">
          <mxGeometry x="0.0954" relative="1" as="geometry">
            <mxPoint as="offset" />
          </mxGeometry>
        </mxCell>
        <mxCell id="SlRHfQLlN7Ac59IzPPvb-1" style="edgeStyle=orthogonalEdgeStyle;rounded=0;orthogonalLoop=1;jettySize=auto;html=1;entryX=0.648;entryY=-0.062;entryDx=0;entryDy=0;entryPerimeter=0;endArrow=none;endFill=0;" parent="1" source="LSVWAHJbNo_uzlFZOcrg-13" target="LSVWAHJbNo_uzlFZOcrg-1" edge="1">
          <mxGeometry relative="1" as="geometry" />
        </mxCell>
        <mxCell id="SlRHfQLlN7Ac59IzPPvb-4" style="edgeStyle=orthogonalEdgeStyle;rounded=0;orthogonalLoop=1;jettySize=auto;html=1;endArrow=circle;endFill=0;endSize=3;" parent="1" source="SlRHfQLlN7Ac59IzPPvb-3" edge="1">
          <mxGeometry relative="1" as="geometry">
            <mxPoint x="184" y="160" as="targetPoint" />
          </mxGeometry>
        </mxCell>
        <mxCell id="SlRHfQLlN7Ac59IzPPvb-6" style="edgeStyle=orthogonalEdgeStyle;rounded=0;orthogonalLoop=1;jettySize=auto;html=1;exitX=0.75;exitY=0;exitDx=0;exitDy=0;endArrow=oval;endFill=0;" parent="1" source="SlRHfQLlN7Ac59IzPPvb-3" edge="1">
          <mxGeometry relative="1" as="geometry">
            <mxPoint x="205.20000000000005" y="170" as="targetPoint" />
          </mxGeometry>
        </mxCell>
        <mxCell id="SlRHfQLlN7Ac59IzPPvb-8" style="edgeStyle=orthogonalEdgeStyle;rounded=0;orthogonalLoop=1;jettySize=auto;html=1;exitX=0.25;exitY=0;exitDx=0;exitDy=0;endArrow=oval;endFill=0;" parent="1" source="SlRHfQLlN7Ac59IzPPvb-3" edge="1">
          <mxGeometry relative="1" as="geometry">
            <mxPoint x="162.79999999999995" y="170" as="targetPoint" />
          </mxGeometry>
        </mxCell>
        <mxCell id="SlRHfQLlN7Ac59IzPPvb-10" style="edgeStyle=orthogonalEdgeStyle;rounded=0;orthogonalLoop=1;jettySize=auto;html=1;exitX=0;exitY=0.25;exitDx=0;exitDy=0;endArrow=oval;endFill=0;" parent="1" source="SlRHfQLlN7Ac59IzPPvb-3" edge="1">
          <mxGeometry relative="1" as="geometry">
            <mxPoint x="124" y="203.20000000000005" as="targetPoint" />
          </mxGeometry>
        </mxCell>
        <mxCell id="SlRHfQLlN7Ac59IzPPvb-14" style="edgeStyle=orthogonalEdgeStyle;rounded=0;orthogonalLoop=1;jettySize=auto;html=1;entryX=0;entryY=0.5;entryDx=0;entryDy=0;endArrow=none;endFill=0;" parent="1" source="SlRHfQLlN7Ac59IzPPvb-3" target="SlRHfQLlN7Ac59IzPPvb-13" edge="1">
          <mxGeometry relative="1" as="geometry" />
        </mxCell>
        <mxCell id="SlRHfQLlN7Ac59IzPPvb-16" style="edgeStyle=orthogonalEdgeStyle;rounded=0;orthogonalLoop=1;jettySize=auto;html=1;exitX=1;exitY=0.25;exitDx=0;exitDy=0;endArrow=oval;endFill=1;endSize=5;" parent="1" source="SlRHfQLlN7Ac59IzPPvb-3" edge="1">
          <mxGeometry relative="1" as="geometry">
            <mxPoint x="240" y="200" as="targetPoint" />
          </mxGeometry>
        </mxCell>
        <mxCell id="SlRHfQLlN7Ac59IzPPvb-22" style="edgeStyle=orthogonalEdgeStyle;rounded=0;orthogonalLoop=1;jettySize=auto;html=1;exitX=0;exitY=0.75;exitDx=0;exitDy=0;endArrow=oval;endFill=0;" parent="1" source="SlRHfQLlN7Ac59IzPPvb-3" edge="1">
          <mxGeometry relative="1" as="geometry">
            <mxPoint x="130" y="233.09195402298855" as="targetPoint" />
          </mxGeometry>
        </mxCell>
        <mxCell id="AMeirHdXKNho0uGjDQyj-1" style="edgeStyle=orthogonalEdgeStyle;rounded=0;orthogonalLoop=1;jettySize=auto;html=1;exitX=0.75;exitY=1;exitDx=0;exitDy=0;endArrow=oval;endFill=0;" parent="1" source="SlRHfQLlN7Ac59IzPPvb-3" edge="1">
          <mxGeometry relative="1" as="geometry">
            <mxPoint x="203.97674418604652" y="250" as="targetPoint" />
          </mxGeometry>
        </mxCell>
        <mxCell id="SlRHfQLlN7Ac59IzPPvb-3" value="InfoConsegna" style="whiteSpace=wrap;html=1;" parent="1" vertex="1">
          <mxGeometry x="145" y="190" width="78.5" height="42" as="geometry" />
        </mxCell>
        <mxCell id="SlRHfQLlN7Ac59IzPPvb-5" value="&lt;font style=&quot;font-size: 8px;&quot;&gt;Citta&lt;/font&gt;" style="text;html=1;align=center;verticalAlign=middle;resizable=0;points=[];autosize=1;strokeColor=none;fillColor=none;" parent="1" vertex="1">
          <mxGeometry x="165" y="140" width="40" height="30" as="geometry" />
        </mxCell>
        <mxCell id="SlRHfQLlN7Ac59IzPPvb-7" value="&lt;font style=&quot;font-size: 8px;&quot;&gt;CAP&lt;/font&gt;" style="text;html=1;align=center;verticalAlign=middle;resizable=0;points=[];autosize=1;strokeColor=none;fillColor=none;" parent="1" vertex="1">
          <mxGeometry x="199" y="150" width="40" height="30" as="geometry" />
        </mxCell>
        <mxCell id="SlRHfQLlN7Ac59IzPPvb-9" value="&lt;font style=&quot;font-size: 8px;&quot;&gt;Via&lt;/font&gt;" style="text;html=1;align=center;verticalAlign=middle;resizable=0;points=[];autosize=1;strokeColor=none;fillColor=none;" parent="1" vertex="1">
          <mxGeometry x="130" y="150" width="40" height="30" as="geometry" />
        </mxCell>
        <mxCell id="SlRHfQLlN7Ac59IzPPvb-11" value="&lt;font style=&quot;font-size: 8px;&quot;&gt;Altro&lt;/font&gt;" style="text;html=1;align=center;verticalAlign=middle;resizable=0;points=[];autosize=1;strokeColor=none;fillColor=none;" parent="1" vertex="1">
          <mxGeometry x="90" y="188" width="40" height="30" as="geometry" />
        </mxCell>
        <mxCell id="SlRHfQLlN7Ac59IzPPvb-15" style="edgeStyle=orthogonalEdgeStyle;rounded=0;orthogonalLoop=1;jettySize=auto;html=1;entryX=0;entryY=0.5;entryDx=0;entryDy=0;endArrow=none;endFill=0;" parent="1" source="SlRHfQLlN7Ac59IzPPvb-13" target="LSVWAHJbNo_uzlFZOcrg-1" edge="1">
          <mxGeometry relative="1" as="geometry" />
        </mxCell>
        <mxCell id="SlRHfQLlN7Ac59IzPPvb-13" value="Info" style="rhombus;whiteSpace=wrap;html=1;" parent="1" vertex="1">
          <mxGeometry x="271" y="206" width="60" height="30" as="geometry" />
        </mxCell>
        <mxCell id="SlRHfQLlN7Ac59IzPPvb-18" value="&lt;font style=&quot;font-size: 7px;&quot;&gt;ID&lt;/font&gt;" style="text;html=1;align=center;verticalAlign=middle;resizable=0;points=[];autosize=1;strokeColor=none;fillColor=none;" parent="1" vertex="1">
          <mxGeometry x="225" y="176" width="30" height="30" as="geometry" />
        </mxCell>
        <mxCell id="SlRHfQLlN7Ac59IzPPvb-19" value="&lt;font style=&quot;font-size: 8px;&quot;&gt;(1, 1)&lt;br&gt;&lt;/font&gt;" style="text;html=1;align=center;verticalAlign=middle;resizable=0;points=[];autosize=1;strokeColor=none;fillColor=none;" parent="1" vertex="1">
          <mxGeometry x="255" y="190" width="40" height="30" as="geometry" />
        </mxCell>
        <mxCell id="SlRHfQLlN7Ac59IzPPvb-20" value="&lt;font style=&quot;font-size: 8px;&quot;&gt;(1, N)&lt;br&gt;&lt;/font&gt;" style="text;html=1;align=center;verticalAlign=middle;resizable=0;points=[];autosize=1;strokeColor=none;fillColor=none;" parent="1" vertex="1">
          <mxGeometry x="325" y="190" width="40" height="30" as="geometry" />
        </mxCell>
        <mxCell id="SlRHfQLlN7Ac59IzPPvb-23" value="&lt;font style=&quot;font-size: 8px;&quot;&gt;Destinatario&lt;/font&gt;" style="text;html=1;align=center;verticalAlign=middle;resizable=0;points=[];autosize=1;strokeColor=none;fillColor=none;" parent="1" vertex="1">
          <mxGeometry x="70" y="218" width="70" height="30" as="geometry" />
        </mxCell>
        <mxCell id="SlRHfQLlN7Ac59IzPPvb-24" style="edgeStyle=orthogonalEdgeStyle;rounded=0;orthogonalLoop=1;jettySize=auto;html=1;exitX=0.5;exitY=1;exitDx=0;exitDy=0;" parent="1" source="LSVWAHJbNo_uzlFZOcrg-33" target="LSVWAHJbNo_uzlFZOcrg-33" edge="1">
          <mxGeometry relative="1" as="geometry" />
        </mxCell>
        <mxCell id="SlRHfQLlN7Ac59IzPPvb-26" style="edgeStyle=orthogonalEdgeStyle;rounded=0;orthogonalLoop=1;jettySize=auto;html=1;exitX=0.5;exitY=0;exitDx=0;exitDy=0;entryX=0.561;entryY=1.033;entryDx=0;entryDy=0;entryPerimeter=0;endArrow=none;endFill=0;" parent="1" source="LSVWAHJbNo_uzlFZOcrg-33" target="SlRHfQLlN7Ac59IzPPvb-3" edge="1">
          <mxGeometry relative="1" as="geometry" />
        </mxCell>
        <mxCell id="SlRHfQLlN7Ac59IzPPvb-29" value="fattura" style="text;html=1;align=center;verticalAlign=middle;resizable=0;points=[];autosize=1;strokeColor=none;fillColor=none;" parent="1" vertex="1">
          <mxGeometry x="127.5" y="418" width="60" height="30" as="geometry" />
        </mxCell>
        <mxCell id="AMeirHdXKNho0uGjDQyj-2" value="&lt;font style=&quot;font-size: 8px;&quot;&gt;default&lt;/font&gt;" style="text;html=1;align=center;verticalAlign=middle;resizable=0;points=[];autosize=1;strokeColor=none;fillColor=none;" parent="1" vertex="1">
          <mxGeometry x="186" y="243" width="50" height="30" as="geometry" />
        </mxCell>
        <mxCell id="bJ4yHHy2VVQf3IYvv8jz-2" value="&lt;font style=&quot;font-size: 8px;&quot;&gt;IVA&lt;/font&gt;" style="text;html=1;align=center;verticalAlign=middle;resizable=0;points=[];autosize=1;strokeColor=none;fillColor=none;" vertex="1" parent="1">
          <mxGeometry x="310.5" y="476.5" width="40" height="30" as="geometry" />
        </mxCell>
        <mxCell id="bJ4yHHy2VVQf3IYvv8jz-4" value="&lt;font style=&quot;font-size: 7px;&quot;&gt;Nome&lt;/font&gt;" style="text;html=1;align=center;verticalAlign=middle;resizable=0;points=[];autosize=1;strokeColor=none;fillColor=none;" vertex="1" parent="1">
          <mxGeometry x="315" y="493" width="40" height="30" as="geometry" />
        </mxCell>
      </root>
    </mxGraphModel>
  </diagram>
</mxfile>
